<svg width="116" height="28" viewBox="0 0 116 28" fill="none" xmlns="http://www.w3.org/2000/svg">
<g clip-path="url(#clip0_147_15530)">
<path d="M86.4482 6.49841C88.9719 6.49841 90.9277 7.94952 90.9277 11.2303V18.9905H88.0129V17.9811C87.2558 18.7634 86.1075 19.1041 84.8709 19.1041C82.4104 19.1041 79.7227 17.7287 79.7227 15.6845V15.571C79.8362 13.5268 81.6533 12.5426 83.5839 11.9369C82.9403 11.2934 82.6627 10.5363 82.6627 9.77917C82.6627 8.18926 83.975 6.67507 85.9435 6.53627C86.1075 6.53627 86.2842 6.51103 86.4482 6.51103V6.49841ZM88.0255 11.5583C86.2337 12.6183 82.8772 12.4038 82.6753 15.3943V15.6214C82.6753 17.1609 83.9119 18.0568 85.363 18.0568H85.6154C86.9277 17.9684 88.0255 16.858 88.0255 15.7855V11.5583ZM85.8678 7.72239C84.8078 7.72239 83.8741 8.61829 83.8741 9.74131C83.8741 10.3344 84.1517 10.9779 84.7952 11.5836C86.4987 11.1419 87.9876 10.8517 87.9876 10.183C87.8741 9.14825 87.281 7.7981 85.994 7.72239H85.8551H85.8678Z" fill="#006D81"/>
<path d="M93.5898 0H96.5047V19.0158H93.5898V0Z" fill="#006D81"/>
<path d="M99.168 0H102.083V19.0158H99.168V0Z" fill="#006D81"/>
<path d="M115.534 6.53628C114.941 8.11357 114.36 9.69086 113.767 11.2681C112.695 14.1704 111.622 17.0726 110.537 19.9748C109.212 23.5584 106.209 26.4227 102.158 26.2713C100.039 26.183 98.0449 25.2997 96.0512 24.5804C94.0575 23.8612 91.8619 23.2934 89.8177 23.8991C88.455 24.3028 87.2941 25.1987 86.1458 26.0316C84.9975 26.8644 83.761 27.6972 82.3603 27.9243C80.9471 28.164 79.3193 27.6467 78.6758 26.3722C80.2657 26.4101 81.7042 25.489 82.9155 24.4543C84.1269 23.4322 85.2373 22.2334 86.6632 21.5268C88.9976 20.3659 91.7862 20.694 94.2846 21.4259C96.7704 22.1577 99.1805 23.2681 101.755 23.6341C104.543 24.0379 108.152 23.3943 109.225 20.4795L104.543 6.51105H107.71L110.89 16L112.127 12.6435C112.556 11.47 112.695 10.2713 112.695 9.2366C112.695 7.64669 112.379 6.51105 112.379 6.51105H115.546L115.534 6.53628Z" fill="#006D81"/>
<path d="M10.5615 10.7634C9.95584 8.18926 8.26498 6.63721 5.94322 6.63721C4.84543 6.63721 3.53312 7.15456 2.85173 7.81071V6.73815H0V25.2997H2.83912V17.8801C3.25552 18.347 4.15142 18.9779 5.38801 18.9779C5.52681 18.9779 5.66562 18.9779 5.80442 18.9527C8.8959 18.6498 10.7256 15.3438 10.7256 12.3281C10.7256 11.7855 10.6751 11.2555 10.5615 10.7634ZM7.89905 13.817C7.43218 15.5962 6.37224 17.0473 5.35016 17.5142C5.13565 17.6277 4.90852 17.653 4.71924 17.653C3.62145 17.653 2.8265 16.3659 2.8265 15.3564V12.5173C2.8265 10.0315 4.30284 7.83594 5.82965 7.83594C5.99369 7.83594 6.18297 7.86118 6.347 7.92427C7.5836 8.34068 8.17666 9.75393 8.17666 11.5331C8.17666 12.2397 8.08833 13.0347 7.87382 13.8296L7.89905 13.817Z" fill="#006D81"/>
<path d="M17.7787 6.62463C14.5484 6.62463 11.9238 9.38804 11.9238 12.7824C11.9238 16.1767 14.5484 18.9401 17.7787 18.9401C21.009 18.9401 23.6336 16.1767 23.6336 12.7824C23.6336 9.38804 21.009 6.62463 17.7787 6.62463ZM19.1163 17.7035C18.9522 17.754 18.7882 17.754 18.6241 17.754C17.1478 17.754 15.5327 16 14.8765 13.5647C14.6872 12.8202 14.5737 12.0884 14.5737 11.407C14.5737 9.60255 15.2551 8.17668 16.4286 7.84861C16.5926 7.79814 16.7566 7.79814 16.9207 7.79814C18.397 7.79814 20.0122 9.55208 20.6683 11.9874C20.8576 12.7319 20.9711 13.4385 20.9711 14.1199C20.9711 15.9243 20.2645 17.3754 19.1163 17.7035Z" fill="#006D81"/>
<path d="M43.2186 6.72552V7.0536C43.2186 7.8107 43.0924 9.71606 41.818 11.4826C41.7549 11.571 41.6918 11.6467 41.6287 11.735L41.1618 12.3154L40.6949 12.9211L39.9504 13.8549V6.73814H37.1113V18.8517H39.9504V15.4826L40.6949 14.5489L41.818 13.1356L42.0703 12.8202L42.2974 12.5173L42.4741 12.3028L46.8779 6.72552H43.2186Z" fill="#006D81"/>
<path d="M43.9626 18.8265V18.4984C43.9626 17.7035 43.8238 15.6593 42.3727 13.8171L41.8301 13.1357L42.0824 12.8202L42.3096 12.5174L42.4862 12.3029L42.8143 12.7319L43.0414 13.0347L47.6219 18.8391H43.9626V18.8265Z" fill="#006D81"/>
<path d="M54.1697 12.4543L56.2643 11.1167L56.34 11.0663L57.9678 10.0063C58.1066 9.91801 58.2201 9.80444 58.3589 9.7035C58.2327 9.48899 58.1192 9.27448 57.9551 9.0852C57.9551 9.05996 57.9299 9.02211 57.9047 9.00949C57.8542 8.9464 57.829 8.90855 57.7785 8.85807C56.87 7.69719 55.5577 6.88962 54.0435 6.68773C53.7911 6.63725 53.5261 6.62463 53.2611 6.62463C52.7943 6.62463 52.34 6.68773 51.9236 6.78867C49.3369 7.41959 47.4062 9.86754 47.4062 12.7697C47.4062 13.6404 47.5829 14.4732 47.8984 15.2303C48.0372 15.5584 48.2012 15.8738 48.3905 16.1767C49.4378 17.8423 51.217 18.9275 53.2485 18.9275C55.1034 18.9275 56.3905 18.3092 57.3999 17.4638C57.728 17.1861 58.0435 16.8959 58.3337 16.5679L57.1981 16.0757C57.0592 16.2272 56.9078 16.3533 56.7438 16.4669C56.6176 16.5679 56.4914 16.6688 56.3526 16.7193C56.2012 16.8076 56.0372 16.8833 55.8857 16.9464C55.81 16.9969 55.7217 17.0221 55.646 17.0347C55.5577 17.06 55.482 17.0852 55.4062 17.1104H55.3936C55.2548 17.1609 55.1034 17.1861 54.9772 17.1988C54.8384 17.2114 54.6996 17.224 54.5861 17.224C53.8668 17.1988 53.1223 17.0221 52.441 16.6057C52.4283 16.6057 52.4157 16.6057 52.3905 16.5931C52.0372 16.3533 51.7469 16.0631 51.4693 15.7477C51.4189 15.7224 51.4063 15.6846 51.381 15.6467C51.1791 15.4196 51.0025 15.1672 50.8384 14.9022C50.788 14.8265 50.7501 14.7508 50.6996 14.6751L50.7627 14.6246L51.8984 13.9054L53.0971 13.1357L54.157 12.4417M50.3715 13.5647C50.3715 13.5647 50.3463 13.4638 50.3463 13.4133C50.1697 12.7193 50.0687 12.0757 50.0687 11.4196C50.0687 9.77921 50.6618 8.42905 51.6334 7.96217C51.7217 7.89908 51.81 7.87385 51.9236 7.83599C52.0876 7.81075 52.2264 7.7729 52.3905 7.7729C52.5924 7.7729 52.7816 7.79814 52.9583 7.86123C53.9047 8.11359 54.8258 9.00949 55.4946 10.3092L54.8889 10.7003L53.5514 11.5584L52.7564 12.0884L50.3842 13.6152C50.3842 13.6152 50.3715 13.5647 50.3715 13.5521V13.5647Z" fill="#006D81"/>
<path d="M65.9183 15.6972C65.9183 17.3628 65.5019 17.9432 64.8205 17.9432C64.3031 17.9432 63.9498 17.5268 63.9498 16.7066V7.76025H67.3441V6.75079H63.9498V3.47003H61.1107V6.75079H58.9277V7.76025H61.1107V16.0505C61.1107 17.6656 62.259 18.9527 64.6691 18.9527C66.9151 18.9527 68.77 18.0189 68.77 15.6972H65.9309H65.9183Z" fill="#006D81"/>
<path d="M36.2023 15.7855C34.6376 18.6499 31.2685 19.8991 28.4799 18.5994C28.4294 18.5741 28.3663 18.5489 28.3158 18.5111C26.1203 17.6404 24.543 15.3943 24.543 12.7697C24.543 9.37541 27.1676 6.612 30.3979 6.612C30.7133 6.612 31.0162 6.63724 31.319 6.67509C33.1108 6.97793 34.625 8.1262 35.4956 9.70348L35.1928 9.86752L34.095 10.4858H34.0824L33.0351 11.0789C32.9468 10.8644 32.8584 10.6372 32.7449 10.4353C32.4925 9.94323 32.2275 9.51421 31.9121 9.14828C31.5209 8.6814 31.0919 8.31547 30.6376 8.07572C30.2843 7.88645 29.9184 7.7855 29.5524 7.7855C29.3884 7.7855 29.2496 7.7855 29.0856 7.83597C27.9121 8.16405 27.1928 9.61515 27.1928 11.4196C27.1928 12.101 27.3064 12.8202 27.4957 13.5521C27.5966 13.8928 27.7102 14.2461 27.8616 14.5615C27.9247 14.7382 28.013 14.877 28.1139 15.0284C28.1644 15.142 28.2275 15.2177 28.278 15.306C28.3411 15.407 28.4042 15.4953 28.4799 15.5962C28.6313 15.7981 28.808 15.9874 28.9972 16.1514C29.0477 16.2145 29.1234 16.2776 29.1865 16.3281C29.2117 16.3407 29.237 16.3659 29.2748 16.3786C29.4515 16.53 29.6408 16.6562 29.8679 16.7445C29.9184 16.7823 29.9815 16.8076 30.0319 16.8454C30.0698 16.8581 30.1203 16.8833 30.1707 16.8959C30.2843 16.9338 30.3852 16.959 30.4988 17.0095C30.5998 17.0347 30.7007 17.0599 30.8016 17.0978C30.8269 17.1104 30.8521 17.1104 30.89 17.1104C31.0035 17.123 31.1045 17.1483 31.218 17.1609C31.4452 17.1735 31.6849 17.1735 31.9121 17.1483H31.9499C32.1013 17.1483 32.2654 17.123 32.4168 17.0473C32.442 17.0473 32.4546 17.0347 32.4799 17.0221C32.5682 16.9969 32.6439 16.959 32.7449 16.9085C32.808 16.8707 32.8963 16.8076 32.972 16.7697C33.5524 16.3533 34.0824 15.6593 34.4231 14.7634L36.2149 15.7603L36.2023 15.7855Z" fill="#006D81"/>
<path d="M73.7167 13.6782C74.7899 13.6782 75.6599 12.8082 75.6599 11.735C75.6599 10.6618 74.7899 9.79181 73.7167 9.79181C72.6434 9.79181 71.7734 10.6618 71.7734 11.735C71.7734 12.8082 72.6434 13.6782 73.7167 13.6782Z" fill="#006D81"/>
</g>
<defs>
<clipPath id="clip0_147_15530">
<rect width="115.533" height="28" fill="white"/>
</clipPath>
</defs>
</svg>
